# xmcd
#
# Track frame offsets:
#	150
#	18038
#	33329
#	49348
#	66177
#	84543
#	101098
#	118005
#	132480
#	147699
#	168337
#	182417
#	200646
#	218819
#
# Disc length: 3115 seconds
#
# Revision: 4
# Processed by: cddbd v1.5.2PL0 Copyright (c) Steve Scherf et al.
# Submitted via: EasyCDDAExtractor 15.3.0.1
#
DISCID=cd0c290e
DTITLE=Laura Pausini - Inedito
DYEAR=2011
DGENRE=Latin
TTITLE0=Bienvenido
TTITLE1=Jamas Abandone
TTITLE2=Bastaba
TTITLE3=Las Cosas Que No Me Espero
TTITLE4=Hace Tiempo (Featuring Ivano Fossati)
TTITLE5=Me Quedo
TTITLE6=Cada Uno Juega Su Partida
TTITLE7=Inedito (Lo Exacto Opuesto De Ti) (Duet With Gianna Nannini)
TTITLE8=Como Vives Tu Sin Mi
TTITLE9=A Simple Vista
TTITLE10=Quien Lo Sabra
TTITLE11=Asi Celeste
TTITLE12=Lo Que Tu Me Das
TTITLE13=Te Digo Adios
EXTD=
EXTT0=
EXTT1=
EXTT2=
EXTT3=
EXTT4=
EXTT5=
EXTT6=
EXTT7=
EXTT8=
EXTT9=
EXTT10=
EXTT11=
EXTT12=
EXTT13=
PLAYORDER=
